<svg viewBox="0 0 234 64" fill="none" xmlns="http://www.w3.org/2000/svg">
<g clip-path="url(#clip0_145_1537)">
<path d="M61.1055 28.1433H78.3255V63.5716H90.9366V28.1433H108.48V16.8091H61.1055V28.1433Z" fill="white"/>
<path d="M57.03 16.7126H44.3052V63.5714H57.03V16.7126Z" fill="white"/>
<path d="M0 16.7126V63.5714H12.7248V16.7126H0Z" fill="white"/>
<path d="M31.9124 16.7126L12.7246 63.5714H25.8429L44.2961 16.7126H39.2324H31.9124Z" fill="white"/>
<path d="M168.562 16.7126H166.874H159.545L146.916 47.5582L134.288 16.7126H126.968H121.904H112.546V63.5714H125.271V25.2658L140.357 63.5714H153.476L168.562 25.2658V63.5714H181.286V16.7126H171.929H168.562Z" fill="white"/>
<path d="M50.6629 5.71984e-05C49.433 0.0241781 48.2377 0.411023 47.2268 1.11204C46.216 1.81306 45.4348 2.79702 44.9811 3.94044C44.5275 5.08386 44.4217 6.33579 44.677 7.53912C44.9323 8.74246 45.5373 9.84359 46.4161 10.7043C47.295 11.565 48.4085 12.147 49.6169 12.3772C50.8252 12.6074 52.0747 12.4756 53.2084 11.9982C54.3421 11.5209 55.3096 10.7193 55.9895 9.6941C56.6693 8.6689 57.0312 7.46576 57.0297 6.23565C57.0112 4.56481 56.3303 2.96961 55.1365 1.80044C53.9428 0.631269 52.3338 -0.0162675 50.6629 5.71984e-05Z" fill="white"/>
<path d="M221.167 40.5619C221 47.7682 216.173 52.6045 209.168 52.6045H208.905C205.136 52.5346 202.031 51.3189 199.924 49.1063C197.816 46.8937 196.731 43.6228 196.801 39.7398C196.719 38.1214 196.982 36.504 197.571 34.9946C198.161 33.4851 199.064 32.1181 200.222 30.9838C201.379 29.8496 202.764 28.974 204.285 28.415C205.806 27.8559 207.429 27.6262 209.045 27.7409C210.657 27.6841 212.263 27.9556 213.767 28.5389C215.27 29.1222 216.639 30.0052 217.791 31.1342C218.956 32.4043 219.855 33.8955 220.433 35.5195C221.012 37.1435 221.258 38.8671 221.158 40.5881L221.167 40.5619ZM222.155 19.7562C218.26 17.5054 213.832 16.3397 209.334 16.3804C208.165 16.3832 206.997 16.4504 205.836 16.5816C199.005 17.3337 193.513 20.1847 189.508 25.056C185.747 29.6299 184.12 35.2096 184.54 42.0924C184.697 46.8589 186.401 51.4449 189.394 55.1582C194.204 61.0352 200.763 63.8426 210.13 63.9912H210.235H210.339L211.555 63.8338C213.188 63.6516 214.807 63.3595 216.4 62.9593C221.178 61.7656 225.446 59.0675 228.574 55.2632C231.617 51.4266 233.335 46.7075 233.471 41.8125C233.882 31.7813 230.078 24.3214 222.163 19.7562" fill="white"/>
</g>
<defs>
<clipPath id="clip0_145_1537">
<rect width="233.506" height="64" fill="white"/>
</clipPath>
</defs>
</svg>
